<svg xmlns="http://www.w3.org/2000/svg" width="22" height="17" viewBox="0 0 22 17" class="fill-current">
    <path d="M9.7 4.5v1.295H6.12v2.05h3.364V9.06H6.12v2.144H9.7v1.295H4.55V4.5H9.7Zm2.637 0 3.545 5.32h.053V4.5h1.476v7.998H16.1l-3.557-5.35h-.047v5.35H11.02V4.5h1.318ZM2.99 17h16.02c.997 0 1.745-.244 2.243-.732.499-.488.748-1.213.748-2.176V2.908c0-.963-.25-1.688-.748-2.176C20.754.244 20.006 0 19.01 0H2.99C2.007 0 1.263.244.758.732.253 1.22 0 1.945 0 2.908v11.184c0 .963.253 1.688.758 2.176.505.488 1.25.732 2.233.732Zm.069-1.648c-.446 0-.787-.116-1.023-.349-.236-.232-.355-.575-.355-1.027V3.024c0-.459.119-.805.355-1.037.236-.233.577-.349 1.023-.349h15.88c.446 0 .79.116 1.033.349.243.232.364.578.364 1.037v10.952c0 .452-.121.795-.364 1.027-.243.233-.587.35-1.033.35H3.06Z">
    </path>
</svg>