<svg xmlns="http://www.w3.org/2000/svg" width="22" height="17" viewBox="0 0 22 17" class="fill-current">
    <path d="M7.732 4.5v3.252h3.357V4.5h1.588v7.998H11.09V9.07H7.732v3.428H6.15V4.5h1.582Zm8.092 0v7.998h-1.582V4.5h1.582ZM2.99 17h16.02c.997 0 1.745-.244 2.243-.732.499-.488.748-1.213.748-2.176V2.908c0-.963-.25-1.688-.748-2.176C20.754.244 20.006 0 19.01 0H2.99C2.007 0 1.263.244.758.732.253 1.22 0 1.945 0 2.908v11.184c0 .963.253 1.688.758 2.176.505.488 1.25.732 2.233.732Zm.069-1.648c-.446 0-.787-.116-1.023-.349-.236-.232-.355-.575-.355-1.027V3.024c0-.459.119-.805.355-1.037.236-.233.577-.349 1.023-.349h15.88c.446 0 .79.116 1.033.349.243.232.364.578.364 1.037v10.952c0 .452-.121.795-.364 1.027-.243.233-.587.35-1.033.35H3.06Z">
    </path>
</svg>